<svg xmlns="http://www.w3.org/2000/svg" viewBox="0 0 194.23 568.97"><defs><style>.cls-1{fill:#d63577;}.cls-2{fill:#73ad25;}.cls-3{fill:#02a59a;}.cls-4{fill:#f0ac3b;}.cls-5{fill:#5a5a5a;}.cls-6{fill:#222;}</style></defs><title>Asset 1</title><g id="Layer_2" data-name="Layer 2"><g id="Layer_1-2" data-name="Layer 1"><path class="cls-1" d="M194.23,499.37c0,7.57-.13,15.15-.09,22.72a8.7,8.7,0,0,1-4.71,8.17q-17.39,10-34.75,20.12c-3.17,1.86-6.15,2-9.39.15-11.85-6.92-23.77-13.72-35.62-20.63a7.9,7.9,0,0,1-4.11-7.23c0-5.16-.07-10.32-.11-15.48,0-8.41.12-16.82.05-25.23a9,9,0,0,1,5-8.54c9.75-5.58,19.44-11.26,29.17-16.87,2.23-1.28,4.52-2.47,6.83-3.62a7.33,7.33,0,0,1,6.95.09c10.35,5.36,20.14,11.69,30.29,17.4,2,1.1,3.93,2.17,5.9,3.23a8.15,8.15,0,0,1,4.57,7.72C194.15,487.38,194.2,493.38,194.23,499.37Z"/><path class="cls-2" d="M99.09,507.66c0,5.33,0,10.66,0,16a7.81,7.81,0,0,1-4.28,7.53c-8.35,4.64-16.6,9.49-24.86,14.3-2.56,1.49-4.93,1-7.3-.39-7.9-4.6-15.74-9.31-23.75-13.72a8.12,8.12,0,0,1-4.7-7.78c0-3.5,0-7,0-10.49,0-5.74.16-11.49.11-17.23A6.78,6.78,0,0,1,38,489.2c8.19-4.62,16.25-9.47,24.3-14.33a7.42,7.42,0,0,1,8.41-.09q12.22,7.3,24.58,14.35A6.74,6.74,0,0,1,99,495.67C98.94,499.66,99,503.66,99.09,507.66Z"/><path class="cls-1" d="M11.1,33.5c0-4.5,0-9,0-13.49A5.53,5.53,0,0,1,14,14.66C22,10.06,30,5.4,38,.77a4.93,4.93,0,0,1,5.23,0q12.23,7,24.43,14.14a5.15,5.15,0,0,1,2.68,4.76q0,13.87,0,27.73a5.52,5.52,0,0,1-3.07,5.06C59.63,56.81,52,61.2,44.38,65.69a6.6,6.6,0,0,1-7.45-.06c-7.5-4.49-15.08-8.84-22.68-13.17A5.67,5.67,0,0,1,11.08,47C11.14,42.5,11.1,38,11.1,33.5Zm11.66-.13c0,2.67,0,5.33,0,8a3.53,3.53,0,0,0,1.86,3.52c4.84,2.77,9.66,5.58,14.49,8.38a2.6,2.6,0,0,0,2.82.21c5-2.91,10.11-5.8,15.15-8.72.46-.26,1.13-.52.64-1.32C56.84,42,53.46,41.14,52,42c-3.1,1.79-6.2,3.57-9.28,5.4a3.3,3.3,0,0,1-3.73.16c-3.21-1.94-6.43-3.84-9.71-5.67a3.05,3.05,0,0,1-1.64-3.07c0-3.5.08-7,0-10.49a3.43,3.43,0,0,1,1.93-3.45c3.13-1.74,6.25-3.49,9.31-5.35a3.21,3.21,0,0,1,3.71,0c2.78,1.67,5.73,3.1,8.39,4.94,2,1.4,3.61,1.31,5.59,0,1.46-1,1.81-1.47.07-2.46q-7.07-4-14-8.14a3.3,3.3,0,0,0-3.72,0q-7,4.1-14.07,8.1a3.57,3.57,0,0,0-2,3.43C22.78,28,22.75,30.71,22.75,33.37Z"/><path class="cls-3" d="M33.39,535.58c3.45,1.08,6.29,3.33,9.41,5,5.52,3,10.92,6.25,16.4,9.35,3.22,1.82,5.11,4.34,5,8.2-.1,3.57,0,7.14,0,10.71l-39.9.09c-7.4,0-14.8,0-22.2,0C1,569,0,569.12,0,567.4c.1-9.47.09-19,.13-28.43,5.16-3,10.37-5.88,15.47-9,3-1.82,6-2,8.86-.08s5.86,3.06,8.29,5.34a3.44,3.44,0,0,0-3.48.74A3,3,0,0,1,25,536a3,3,0,0,0-4.28,0,3.11,3.11,0,0,1-4.48,0,2.82,2.82,0,0,0-4.06,0,2.84,2.84,0,0,0-.35,4.23,3.34,3.34,0,0,1,.07,4.72,2.94,2.94,0,0,0,0,4.09,3.19,3.19,0,0,1,.07,4.51,2.93,2.93,0,0,0,.22,4.43c1.39,1.28,2.89,1,4.26-.18a2.84,2.84,0,0,1,4.05-.07c1.59,1.33,3.17,1.55,4.61,0a2.82,2.82,0,0,0,0-4.07c-1.36-1.48-2.93-1.33-4.44-.11-1.33,1.08-2.76,1.31-4.06.1a2.89,2.89,0,0,1-.33-4.25,3.54,3.54,0,0,0,0-4.78,2.9,2.9,0,0,1,.35-4.25c1.31-1.21,2.71-1.05,4,.1a3.06,3.06,0,0,0,4.47,0,2.79,2.79,0,0,1,4-.14c1.47,1.27,3,1.61,4.45.23C35.22,538.85,34.76,537.15,33.39,535.58ZM23,546a1.17,1.17,0,0,0-1.25,1,1,1,0,0,0,.89,1.28,1.06,1.06,0,0,0,1.38-1C24,546.58,23.59,546.18,23,546Zm9.57,1a1.06,1.06,0,0,0-1.18-.88.94.94,0,0,0-.82,1,.89.89,0,0,0,.89,1C32.11,548.14,32.48,547.75,32.54,547Zm0,8.77c0-.68-.36-1.11-1-1.12a.89.89,0,0,0-.94.91.92.92,0,0,0,.75,1.09A1,1,0,0,0,32.53,555.75Z"/><path class="cls-4" d="M55.63,460.52c0,3,0,6,0,9a4,4,0,0,1-2.16,3.89c-5.26,3-10.48,6.15-15.7,9.27a5,5,0,0,1-5.61.09q-7.79-4.73-15.71-9.25a4.39,4.39,0,0,1-2.37-4.29c.07-5.83.08-11.66,0-17.49a5.22,5.22,0,0,1,3-5c4.85-2.76,9.66-5.58,14.45-8.43a6,6,0,0,1,6.57-.1c5,3,10.05,5.89,15.09,8.82a4.48,4.48,0,0,1,2.47,4.28C55.58,454.36,55.63,457.44,55.63,460.52Z"/><path class="cls-4" d="M70.19,568.88c0-4.41,0-8.82-.07-13.23a4.27,4.27,0,0,1,2-4c5.15-3,10.35-6,15.48-9.09a6.2,6.2,0,0,1,6.8.13c5,2.93,10,5.89,15.07,8.82a4.13,4.13,0,0,1,2.16,3.93c0,4.49-.05,9-.07,13.48Z"/><path class="cls-1" d="M17.67,514.5c0,1.66-.19,3.33-.07,5a4.2,4.2,0,0,1-2.9,4.65,46.07,46.07,0,0,0-8.19,4.72c-2.15,1.46-4.16,1.93-6.4.39,0-9.5-.08-19-.08-28.49a2.92,2.92,0,0,1,4.41-2.54c4,2.19,7.9,4.63,11.82,7a3,3,0,0,1,1.32,2.8C17.59,510.17,17.64,512.33,17.67,514.5Z"/><path class="cls-5" d="M107.27,24.59q0-1.12,0-2.24c0-5.51,0-5.5,5.49-5.19a3.2,3.2,0,0,1,3.3,2.82c.58,3.54.2,7.13.26,10.69,0,.89-.58,1.07-1.34,1.07-1,0-1.27-.55-1.27-1.43,0-2.16.15-4.33,0-6.47-.13-1.59,1-4.24-1.91-4.22-2.72,0-1.66,2.56-1.79,4.1-.15,1.81,0,3.65-.06,5.48,0,1,.61,2.57-1.38,2.53-1.8,0-1.21-1.45-1.25-2.41-.07-1.57,0-3.15,0-4.73Z"/><path class="cls-5" d="M148.21,23.17c0,1.41,0,2.82,0,4.24,0,1.12.5,1.94,1.75,2s2-.78,2-2c.06-2.74,0-5.48,0-8.22,0-.92-.1-1.89,1.3-1.9s1.38.87,1.37,1.84c0,2.74,0,5.48-.08,8.22-.11,2.93-1.81,4.58-4.5,4.58a4.19,4.19,0,0,1-4.47-4.34c-.15-2.9-.06-5.81-.1-8.72,0-1,.24-1.59,1.38-1.59s1.31.74,1.3,1.65c0,1.41,0,2.82,0,4.24Z"/><path class="cls-1" d="M105,44.37a34.37,34.37,0,0,1,0,3.48,4.54,4.54,0,0,1-4.89,4.27,4.37,4.37,0,0,1-4.46-4.42,62,62,0,0,1,0-6.47,4.35,4.35,0,0,1,4.62-4.49A4.46,4.46,0,0,1,105,41.14c.09,1.07,0,2.15,0,3.23Zm-6.83-.11h0c0,1.08-.07,2.17,0,3.24a2,2,0,0,0,2.06,2.05,1.94,1.94,0,0,0,2.1-2c.11-2.07.11-4.15,0-6.23a1.91,1.91,0,0,0-2.07-2c-1.48,0-2.06.9-2.14,2.22C98.15,42.43,98.2,43.35,98.2,44.26Z"/><path class="cls-5" d="M104.72,24.64a30.22,30.22,0,0,1,0,3.23,4.2,4.2,0,0,1-4.48,4c-2.47,0-4.13-1.34-4.34-3.86a41.57,41.57,0,0,1,0-6.95,4,4,0,0,1,4.29-3.92,4.19,4.19,0,0,1,4.54,4A32.06,32.06,0,0,1,104.72,24.64Zm-2.61-.12c0-1.08,0-2.15,0-3.23a1.86,1.86,0,0,0-3.68-.1c-.1,2.23-.1,4.46,0,6.69a1.61,1.61,0,0,0,1.9,1.54,1.66,1.66,0,0,0,1.78-1.68C102.16,26.67,102.11,25.59,102.11,24.52Z"/><path class="cls-5" d="M123.34,31.93c-2.22,0-3.78-.76-4.55-2.71-.26-.65-.73-1.59.18-2,.75-.3,1.83-.53,2.2.82a2.08,2.08,0,0,0,.85,1.16,1.73,1.73,0,0,0,2.45-.38,1.71,1.71,0,0,0-.56-2.59c-1.1-.74-2.35-1.26-3.43-2a3.65,3.65,0,0,1-1.4-4.61c.76-2.05,2.41-2.6,4.4-2.47a3.67,3.67,0,0,1,3.7,3.09c.13.61.49,1.42-.48,1.64-.69.16-1.53.33-1.89-.66a2.78,2.78,0,0,0-.37-.92,1.68,1.68,0,0,0-2.62-.19c-.83.82-.44,1.74.42,2.31s2.07,1.06,3,1.68a4.06,4.06,0,0,1,2,4.9A3.94,3.94,0,0,1,123.34,31.93Z"/><path class="cls-1" d="M88.68,52.15c-1.1-.31-2.91.79-3.71-.64-.91-1.64.65-2.9,1.58-4.14,1.19-1.6,2.42-3.18,3.58-4.8.63-.89.87-1.91-.16-2.64s-1.92-.29-2.43.77a1.49,1.49,0,0,1-2.29.69c-.84-.49-.29-1.37,0-2a4,4,0,0,1,5.58-2.18,4.42,4.42,0,0,1,1.9,6.17A46,46,0,0,1,89.5,47.8c-.82,1.11-.59,1.64.81,1.6.5,0,1,0,1.5,0,1.08-.08,1.49.42,1.48,1.46s-.49,1.31-1.4,1.29S89.9,52.15,88.68,52.15Z"/><path class="cls-5" d="M156.52,24.54a26.61,26.61,0,0,1,.36-4.2c.54-2.24,2.18-3.25,4.46-3.18a4,4,0,0,1,4.1,3.31c.16.7.47,1.59-.64,1.81-.72.14-1.59.21-1.8-.82-.26-1.27-.94-2-2.26-1.72-1.51.29-1.56,1.52-1.56,2.73,0,1.67,0,3.33,0,5a1.83,1.83,0,0,0,1.6,1.94,1.58,1.58,0,0,0,2-1.35c.18-1.28,1-1.5,2-1.24,1.42.38.73,1.5.5,2.26a3.91,3.91,0,0,1-4.19,2.85c-2.16,0-3.75-1-4.24-3.14A28.7,28.7,0,0,1,156.52,24.54Z"/><path class="cls-5" d="M87.27,24.53c0,1-.05,2,0,3s.45,1.78,1.6,1.89a1.61,1.61,0,0,0,1.94-1.18c.3-1.41,1.18-2,2.28-1.32s.39,1.8,0,2.65a4.06,4.06,0,0,1-4.31,2.33c-1.91-.14-3.44-1-3.83-3a22.5,22.5,0,0,1,0-8.67c.45-2.32,2.24-3.15,4.49-3.09a4.1,4.1,0,0,1,4.07,3.38c.17.61.4,1.42-.51,1.66-.68.18-1.61.39-1.87-.62-.34-1.31-1-2.19-2.42-1.86-1.66.38-1.4,1.82-1.44,3,0,.58,0,1.16,0,1.75Z"/><path class="cls-1" d="M118.85,36.74c4.91,0,5,.06,3.3,4.68-1.13,3.13-2.41,6.2-3.53,9.34-.42,1.18-1.14,1.69-2.24,1.33-1.47-.48-.53-1.52-.27-2.24,1-2.82,2.11-5.6,3.15-8.41.24-.64.87-1.5-.23-1.88-.89-.31-1.88-.3-2,1.09-.08,1.11-.9,1-1.65,1-.91,0-.94-.71-1-1.41C114,36.74,114,36.74,118.85,36.74Z"/><path class="cls-5" d="M130.1,24.6c-.19-1.87.73-3.93-1-5.59-.46-.44,1.82-4,2.54-4.07.42-.05,1,0,1,.47.11,1.25.56,2,2,2,.63,0,.61.67.62,1.17,0,.67-.23,1.17-1,1.15-1.49,0-1.48,1-1.47,2,0,1.74,0,3.49,0,5.23,0,1.15-.12,2.43,1.64,2.5,1,0,.82.86.82,1.5,0,1-.71,1-1.4.95-1.87-.07-3.25-.82-3.5-2.83C130.18,27.58,130.18,26.09,130.1,24.6Z"/><path class="cls-5" d="M171.94,31.91c-1.94-.15-3.25-1-3.4-3s-.12-3.81-.22-5.71c-.07-1.35.39-2.77-.9-3.93-.54-.48,1.54-4.18,2.35-4.36.47-.1,3.82,3.48,3.66,3.95-.1.29-.34.75-.51.75-2.71-.06-1.82,2-1.9,3.32s0,2.82,0,4.23c0,1.1,0,2.22,1.56,2.29,1.12,0,1,1,.89,1.67C173.32,32.07,172.5,31.82,171.94,31.91Z"/><path class="cls-1" d="M111.45,44.54c0,2,0,4,0,6,0,.93-.09,1.64-1.31,1.62s-1.27-.77-1.27-1.68c0-2.75,0-5.49,0-8.24,0-.77.43-2.09-1.32-1.46-.5.18-.61-.4-.64-.82-.15-2,1.14-2.85,2.79-3.2,2-.43,1.83,1,1.81,2.31,0,1.83,0,3.66,0,5.49Z"/><path class="cls-5" d="M137.65,24.47c0-1.82.08-3.65,0-5.47-.08-1.53.67-2,1.94-1.62a3.21,3.21,0,0,0,2.1-.06c.6-.2,1.42-.44,1.65.47s.38,1.76-.8,2c-2.05.42-2.22,2-2.28,3.62-.08,2.23,0,4.47,0,6.71,0,.88,0,1.66-1.24,1.66s-1.36-.63-1.35-1.59C137.67,28.28,137.65,26.37,137.65,24.47Z"/><path class="cls-4" d="M33.39,535.58c1.37,1.57,1.83,3.27.17,4.86-1.45,1.38-3,1-4.45-.23a2.79,2.79,0,0,0-4,.14,3.06,3.06,0,0,1-4.47,0c-1.32-1.15-2.72-1.31-4-.1a2.9,2.9,0,0,0-.35,4.25,3.54,3.54,0,0,1,0,4.78,2.89,2.89,0,0,0,.33,4.25c1.3,1.2,2.73,1,4.06-.1,1.51-1.23,3.07-1.37,4.44.11a2.82,2.82,0,0,1,0,4.07c-1.44,1.59-3,1.37-4.61,0a2.84,2.84,0,0,0-4.05.07c-1.37,1.18-2.87,1.46-4.26.18a2.93,2.93,0,0,1-.22-4.43,3.19,3.19,0,0,0-.07-4.51,2.94,2.94,0,0,1,0-4.09,3.34,3.34,0,0,0-.07-4.72,2.84,2.84,0,0,1,.35-4.23,2.82,2.82,0,0,1,4.06,0,3.11,3.11,0,0,0,4.48,0A3,3,0,0,1,25,536a3,3,0,0,0,4.27,0,3.44,3.44,0,0,1,3.48-.74Z"/><path class="cls-6" d="M22.75,33.37c0-2.67,0-5.33,0-8a3.57,3.57,0,0,1,2-3.43q7.07-4,14.07-8.1a3.3,3.3,0,0,1,3.72,0q7,4.15,14,8.14c1.75,1,1.39,1.46-.07,2.46-2,1.35-3.55,1.45-5.59,0-2.66-1.84-5.61-3.26-8.39-4.94a3.21,3.21,0,0,0-3.71,0c-3.06,1.86-6.18,3.62-9.31,5.35a3.43,3.43,0,0,0-1.93,3.45c.09,3.5.06,7,0,10.49a3.05,3.05,0,0,0,1.64,3.07c3.27,1.83,6.5,3.73,9.71,5.67a3.3,3.3,0,0,0,3.73-.16c3.08-1.83,6.18-3.62,9.28-5.4,1.48-.85,4.86,0,5.71,1.43.48.8-.19,1.06-.64,1.32-5,2.92-10.11,5.81-15.15,8.72a2.6,2.6,0,0,1-2.82-.21c-4.82-2.8-9.64-5.61-14.49-8.38a3.53,3.53,0,0,1-1.86-3.52C22.8,38.7,22.75,36,22.75,33.37Z"/><path class="cls-2" d="M23,546c.62.17,1.07.57,1,1.22a1.06,1.06,0,0,1-1.38,1,1,1,0,0,1-.89-1.28A1.17,1.17,0,0,1,23,546Z"/><path class="cls-4" d="M32.54,547c-.07.78-.43,1.16-1.11,1.13a.89.89,0,0,1-.89-1,.94.94,0,0,1,.82-1A1.06,1.06,0,0,1,32.54,547Z"/><path class="cls-4" d="M32.53,555.75a1,1,0,0,1-1.23.88.92.92,0,0,1-.75-1.09.89.89,0,0,1,.94-.91C32.17,554.64,32.51,555.06,32.53,555.75Z"/><path class="cls-6" d="M98.2,44.26c0-.91,0-1.83,0-2.74.08-1.32.66-2.22,2.14-2.22a1.91,1.91,0,0,1,2.07,2c.09,2.07.09,4.16,0,6.23a1.94,1.94,0,0,1-2.1,2,2,2,0,0,1-2.06-2.05c-.09-1.07,0-2.16,0-3.24Z"/><path class="cls-6" d="M102.11,24.52c0,1.08.05,2.15,0,3.23a1.66,1.66,0,0,1-1.78,1.68,1.61,1.61,0,0,1-1.9-1.54c-.11-2.23-.11-4.46,0-6.69a1.86,1.86,0,0,1,3.68.1C102.15,22.36,102.11,23.44,102.11,24.52Z"/></g></g></svg>
